<!-- by TradingView --><svg width="18" height="18" xmlns="http://www.w3.org/2000/svg"><path fill="#002E6B" d="M0 0h18v18H0z"/><path d="M9 12.5c3.865 0 7-1.567 7-3.5s-3.135-3.5-7-3.5S2 7.067 2 9s3.135 3.5 7 3.5zm1.318-1.717c-.117.264-.318.828-.78 1.053-.14.068-.313.1-.466.106H9c-1.292 0-2.495-.177-3.501-.475l-.039-.015c-.093-.03-.14-.072-.14-.124 0-.044.025-.08.057-.11l.064-.056c.233-.189.933-.684 2.25-1.177.463-.172 1.043-.387 1.649-.512.354-.073 1.673-.27.977 1.31zm3.536-3.528c.025-.042.058-.078.118-.081.033-.003.077.004.145.046.822.493 1.31 1.111 1.31 1.78 0 1.206-1.59 2.243-3.862 2.696-.145.029-.242.028-.275-.008-.024-.022-.03-.06 0-.108a.466.466 0 01.06-.083c1.238-1.424 2.18-3.525 2.448-4.131.02-.042.04-.084.056-.111zm-6.15-.045c.116-.264.317-.828.778-1.052.14-.068.313-.1.467-.105h.07c1.293 0 2.494.174 3.502.475l.038.014c.094.03.14.072.14.124 0 .045-.024.078-.057.11a1.098 1.098 0 01-.063.055c-.232.19-.933.684-2.251 1.177-.464.173-1.042.387-1.646.512-.357.074-1.675.27-.979-1.31zm-1.27-.907c.146-.028.242-.028.277.008.021.023.027.06 0 .108a.507.507 0 01-.061.081C5.413 7.926 4.47 10.025 4.2 10.633c-.02.042-.04.083-.056.11-.024.043-.058.079-.117.082-.032.003-.078-.007-.146-.046-.822-.494-1.31-1.112-1.31-1.78 0-1.206 1.589-2.244 3.862-2.697" fill="#fff"/></svg>